<?xml version="1.0" encoding="UTF-8"?><svg id="Laag_1" xmlns="http://www.w3.org/2000/svg" viewBox="0 0 444.12 421.88"><defs><style>.cls-1{fill:#f39322;}.cls-2{fill:#f49523;}</style></defs><path d="m40.73,268.44c-5.15,0-9.94-.17-14.39-.53-4.43-.34-8.57-.99-12.4-1.88-3.84-.91-7.43-2.17-10.75-3.78v-28.16c5.35,4.14,11.03,7.11,17.04,8.93,6,1.81,11.22,2.72,15.66,2.72,3.23,0,5.88-.53,7.95-1.59,2.07-1.06,3.1-3.15,3.1-6.28,0-2.02-1.11-3.66-3.33-4.92-2.22-1.27-5.25-2.45-9.08-3.56-3.84-1.11-8.18-2.48-13.02-4.09-2.72-.9-5.37-2.07-7.95-3.47-2.57-1.42-4.87-3.2-6.89-5.38-2.02-2.17-3.63-4.79-4.84-7.87-1.22-3.07-1.82-6.78-1.82-11.12,0-4.74.89-9.23,2.65-13.46,1.76-4.24,4.39-7.96,7.87-11.14,3.49-3.18,7.9-5.67,13.24-7.49,5.35-1.81,11.55-2.72,18.63-2.72,4.24,0,8.04.22,11.42.68,3.39.46,6.62,1.17,9.69,2.12,3.08.96,6.13,2.21,9.15,3.71v28.76c-2.22-2.02-4.87-3.93-7.95-5.75-3.08-1.81-6.26-3.35-9.53-4.62-3.28-1.26-6.43-1.98-9.46-2.19-2.32-.2-4.62-.1-6.89.31-2.27.41-4.14,1.23-5.6,2.5-1.47,1.26-2.19,3.09-2.19,5.52,0,2.22.81,3.97,2.43,5.22,1.61,1.27,3.86,2.33,6.74,3.18,2.87.86,6.07,1.8,9.61,2.8,4.34,1.22,8.25,2.57,11.73,4.09,3.49,1.52,6.45,3.39,8.93,5.6s4.36,4.92,5.68,8.09c1.31,3.18,1.97,7,1.97,11.43,0,6.76-1.59,12.74-4.77,17.94-3.18,5.2-7.58,9.24-13.17,12.11-5.6,2.88-12.1,4.31-19.45,4.31Z"/><path d="m139.72,268.44c-9.99,0-18.82-1.86-26.48-5.59-7.67-3.73-13.67-9.49-18.02-17.26-4.34-7.77-6.5-17.71-6.5-29.82,0-17.36,4.55-30.5,13.62-39.43,9.08-8.93,21.55-13.39,37.39-13.39,9.99,0,18.82,1.86,26.5,5.59,7.66,3.73,13.66,9.46,18.01,17.18,4.34,7.72,6.5,17.69,6.5,29.9,0,17.36-4.52,30.5-13.55,39.43-9.03,8.93-21.52,13.39-37.46,13.39Zm0-24.22c3.94,0,7.37-.87,10.3-2.65,2.92-1.76,5.22-4.74,6.89-8.93,1.66-4.19,2.5-9.92,2.5-17.17s-.84-12.97-2.5-17.11-3.97-7.03-6.89-8.71c-2.93-1.66-6.36-2.49-10.3-2.49s-7.37.87-10.29,2.65c-2.93,1.76-5.22,4.72-6.9,8.86-1.66,4.14-2.49,9.88-2.49,17.25s.83,12.95,2.49,17.04c1.68,4.09,3.97,6.98,6.9,8.7,2.92,1.72,6.36,2.57,10.29,2.57Z"/><path d="m205.87,266.17v-100.96h24.51l47.23,61.75-9.23,19.98v-81.73h27.54v100.96h-21.19l-47.38-59.19,6.05-13.77v72.96h-27.54Z"/><path d="m315.61,266.17v-100.96h30.43v100.96h-30.43Z"/><path d="m411.43,268.44c-16.46,0-29.07-4.21-37.84-12.64-8.78-8.43-13.17-21.77-13.17-40.04s4.16-30.67,12.48-39.65c8.33-8.98,21.18-13.48,38.53-13.48,5.35,0,10.82.65,16.42,1.97,5.6,1.31,11.03,3.13,16.27,5.44v25.88c-5.56-3.83-10.73-6.55-15.52-8.17-4.79-1.61-9.1-2.43-12.93-2.43-4.84,0-9.07.91-12.64,2.72-3.58,1.82-6.36,4.93-8.33,9.31-1.97,4.39-2.96,10.57-2.96,18.54s1.01,13.83,3.03,18.17,4.92,7.37,8.71,9.08c3.78,1.72,8.34,2.57,13.7,2.57,3.12,0,7.01-.78,11.65-2.34,4.64-1.56,9.73-4.21,15.29-7.95v25.88c-2.62,1.42-5.8,2.65-9.53,3.71-3.73,1.06-7.63,1.88-11.65,2.5-4.04.6-7.87.9-11.51.9Z"/><path class="cls-2" d="m116.28,421.88c-5.04,0-9.32-.36-12.84-1.06-3.51-.7-6.69-1.71-9.51-3.02-2.81-1.3-5.89-2.81-9.2-4.53v-11.77c3.22,2.72,7.55,5.14,12.98,7.25,5.44,2.11,11.79,3.17,19.04,3.17,7.64,0,13.21-1.63,16.69-4.9,3.47-3.28,5.21-7.43,5.21-12.46,0-4.23-1.17-7.63-3.48-10.2-2.32-2.57-5.28-4.68-8.91-6.34-3.63-1.66-7.45-3.24-11.48-4.76-3.43-1.2-6.82-2.49-10.19-3.85-3.38-1.36-6.43-3.07-9.14-5.14s-4.88-4.73-6.49-8c-1.61-3.27-2.42-7.37-2.42-12.31,0-2.72.53-5.58,1.59-8.6s2.77-5.84,5.14-8.45c2.36-2.62,5.53-4.73,9.51-6.34,3.98-1.61,8.84-2.42,14.58-2.42,3.92,0,7.28.28,10.04.84,2.77.55,5.41,1.35,7.93,2.41,2.52,1.06,5.33,2.35,8.45,3.86v11.17c-2.62-1.51-5.11-2.9-7.47-4.15-2.37-1.25-4.98-2.26-7.85-3.02-2.86-.75-6.37-1.13-10.49-1.13-4.93,0-8.89.7-11.86,2.11-2.96,1.41-5.12,3.27-6.49,5.59-1.36,2.31-2.04,4.78-2.04,7.4,0,4.13.93,7.4,2.8,9.82,1.86,2.41,4.47,4.4,7.85,5.96,3.37,1.56,7.26,3.1,11.7,4.61,3.51,1.2,7.04,2.54,10.57,3.99,3.53,1.46,6.72,3.28,9.59,5.44,2.88,2.16,5.19,4.88,6.96,8.15,1.76,3.28,2.64,7.32,2.64,12.15,0,4.53-1.01,9-3.02,13.37-2.02,4.37-5.44,8-10.27,10.88-4.83,2.86-11.53,4.3-20.08,4.3Z"/><path class="cls-2" d="m210.97,421.88c-12.49,0-22.18-3.67-29.08-11.02-6.89-7.35-10.35-17.87-10.35-31.56v-59.65h10.88v60.25c0,10.77,2.42,18.75,7.25,23.93,4.83,5.19,11.93,7.78,21.3,7.78s16.5-2.59,21.44-7.78c4.93-5.17,7.4-13.16,7.4-23.93v-60.25h10.57v59.65c0,9.16-1.56,16.91-4.68,23.25-3.12,6.34-7.61,11.15-13.44,14.43-5.84,3.27-12.93,4.9-21.28,4.9Z"/><path class="cls-2" d="m276.04,420.37v-100.72h12.39l62.82,88.64-2.72,4.23v-92.87h10.86v100.72h-12.23l-65.23-91.96,4.98-4.68v96.64h-10.88Z"/><rect class="cls-1" x="93.35" y="49.38" width="36.38" height="36.38" rx="11.14" ry="11.14"/><rect class="cls-1" x="314.39" y="49.38" width="36.38" height="36.38" rx="11.14" ry="11.14"/><path class="cls-1" d="m287.94,13.29h-14.1c-6.15,0-11.14,4.99-11.14,11.14v18.03c-3.08,2.4-6.92,3.87-11.13,3.87-4.46,0-8.51-1.64-11.67-4.3V11.14c0-6.15-4.99-11.14-11.14-11.14h-14.1c-6.15,0-11.14,4.99-11.14,11.14v29.53c-2.97,2.11-6.58,3.37-10.5,3.37-5.03,0-9.56-2.08-12.85-5.38v-14.23c0-6.15-4.99-11.14-11.14-11.14h-14.1c-6.15,0-11.14,4.99-11.14,11.14v73.28c0,6.15,4.99,11.14,11.14,11.14h14.1c6.15,0,11.14-4.99,11.14-11.14v-11.4c3.29-3.32,7.81-5.4,12.85-5.4h0c3.92,0,7.54,1.26,10.5,3.38v26.71c0,6.15,4.99,11.14,11.14,11.14h14.1c6.15,0,11.14-4.99,11.14-11.14v-23.48c3.16-2.68,7.21-4.32,11.67-4.32h0c4.21,0,8.06,1.46,11.13,3.87v10.64c0,6.15,4.99,11.14,11.14,11.14h14.1c6.15,0,11.14-4.99,11.14-11.14V24.43c0-6.15-4.99-11.14-11.14-11.14Z"/></svg>