<?xml version="1.0" encoding="UTF-8"?><svg id="Laag_1" xmlns="http://www.w3.org/2000/svg" viewBox="0 0 750.47 153.8"><defs><style>.cls-1{fill:#fff;}.cls-2{fill:#f39322;}.cls-3{fill:#f49523;}</style></defs><rect class="cls-2" x="19.83" y="19.83" width="114.14" height="114.14" rx="9.2" ry="9.2" transform="translate(76.9 -31.85) rotate(45)"/><rect class="cls-1" x="17.06" y="68.32" width="16.91" height="16.91" rx="4.1" ry="4.1"/><rect class="cls-1" x="119.82" y="68.32" width="16.91" height="16.91" rx="4.1" ry="4.1"/><rect class="cls-1" x="68.28" y="45.36" width="16.91" height="56.78" rx="4.1" ry="4.1"/><rect class="cls-1" x="95.79" y="51.54" width="16.91" height="44.42" rx="4.1" ry="4.1"/><rect class="cls-1" x="40.51" y="51.54" width="16.91" height="44.42" rx="4.1" ry="4.1"/><path class="cls-1" d="m90.61,84.04h0c3,0,5.61,1.57,7.11,3.92.52-1.05.83-2.22.83-3.47v-21.47c0-.46-.06-.9-.14-1.34-1.27,3.06-4.29,5.22-7.81,5.22s-6.54-2.16-7.81-5.22c-.07.44-.14.88-.14,1.34v21.47c0,1.25.32,2.42.83,3.47,1.5-2.35,4.12-3.92,7.11-3.92Z"/><path class="cls-1" d="m63.39,82.97h0c3,0,5.61,1.57,7.11,3.92.52-1.05.83-2.22.83-3.47v-21.47c0-.46-.06-.9-.14-1.34-1.27,3.06-4.29,5.22-7.81,5.22s-6.54-2.16-7.81-5.22c-.07.44-.14.88-.14,1.34v21.47c0,1.25.32,2.42.83,3.47,1.5-2.35,4.12-3.92,7.11-3.92Z"/><path d="m199.25,114.97c-3.91,0-7.55-.13-10.92-.4-3.37-.26-6.51-.75-9.41-1.43-2.92-.69-5.64-1.65-8.16-2.87v-21.37c4.06,3.14,8.37,5.39,12.93,6.78,4.55,1.37,8.52,2.07,11.88,2.07,2.45,0,4.46-.4,6.03-1.21s2.36-2.39,2.36-4.77c0-1.53-.84-2.78-2.52-3.73-1.68-.96-3.98-1.86-6.89-2.7-2.92-.84-6.21-1.88-9.88-3.1-2.07-.68-4.08-1.57-6.03-2.64-1.95-1.08-3.69-2.43-5.23-4.09-1.53-1.65-2.76-3.64-3.67-5.97-.93-2.33-1.38-5.14-1.38-8.44,0-3.6.67-7,2.01-10.22s3.33-6.04,5.97-8.45c2.65-2.41,5.99-4.3,10.05-5.68,4.06-1.37,8.77-2.07,14.14-2.07,3.22,0,6.11.17,8.67.51,2.57.35,5.02.89,7.36,1.61,2.34.73,4.66,1.67,6.95,2.81v21.83c-1.68-1.53-3.69-2.98-6.03-4.37-2.34-1.37-4.75-2.54-7.24-3.51-2.49-.95-4.88-1.51-7.18-1.66-1.76-.15-3.51-.07-5.23.23-1.72.31-3.14.93-4.25,1.9-1.11.95-1.66,2.35-1.66,4.19,0,1.68.62,3.01,1.84,3.96,1.22.96,2.93,1.77,5.11,2.41,2.18.65,4.61,1.37,7.29,2.12,3.29.93,6.26,1.95,8.9,3.1,2.65,1.15,4.9,2.57,6.78,4.25s3.31,3.73,4.31,6.14c.99,2.41,1.5,5.31,1.5,8.68,0,5.13-1.21,9.67-3.62,13.61-2.41,3.95-5.75,7.01-9.99,9.19-4.25,2.19-9.18,3.27-14.76,3.27Z"/><path d="m274.38,114.97c-7.58,0-14.29-1.41-20.1-4.24-5.82-2.83-10.38-7.2-13.68-13.1-3.29-5.9-4.94-13.44-4.94-22.64,0-13.17,3.45-23.15,10.34-29.93,6.89-6.78,16.35-10.16,28.38-10.16,7.58,0,14.29,1.41,20.11,4.24,5.82,2.83,10.37,7.18,13.67,13.04,3.29,5.86,4.94,13.43,4.94,22.69,0,13.17-3.43,23.15-10.28,29.93-6.85,6.78-16.33,10.16-28.43,10.16Zm0-18.38c2.99,0,5.59-.66,7.82-2.01,2.22-1.34,3.96-3.6,5.23-6.78,1.26-3.18,1.9-7.53,1.9-13.03s-.64-9.85-1.9-12.99c-1.26-3.14-3.01-5.34-5.23-6.61-2.23-1.26-4.82-1.89-7.82-1.89s-5.59.66-7.81,2.01c-2.23,1.34-3.96,3.58-5.24,6.72-1.26,3.14-1.89,7.5-1.89,13.09s.63,9.83,1.89,12.93c1.27,3.1,3.01,5.3,5.24,6.6,2.22,1.31,4.82,1.95,7.81,1.95Z"/><path d="m324.59,113.25V36.62h18.61l35.85,46.87-7,15.16v-62.03h20.91v76.63h-16.08l-35.96-44.92,4.59-10.45v55.38h-20.91Z"/><path d="m407.88,113.25V36.62h23.09v76.63h-23.09Z"/><path d="m480.6,114.97c-12.49,0-22.06-3.2-28.72-9.59-6.67-6.4-9.99-16.52-9.99-30.39s3.16-23.28,9.47-30.1c6.32-6.82,16.07-10.23,29.25-10.23,4.06,0,8.21.5,12.46,1.5,4.25.99,8.37,2.37,12.35,4.13v19.64c-4.22-2.91-8.14-4.97-11.78-6.2s-6.91-1.84-9.82-1.84c-3.67,0-6.88.69-9.59,2.07-2.72,1.38-4.82,3.74-6.32,7.07s-2.24,8.02-2.24,14.07.77,10.5,2.3,13.79c1.53,3.29,3.73,5.59,6.61,6.89,2.87,1.31,6.33,1.95,10.4,1.95,2.37,0,5.32-.59,8.84-1.78,3.52-1.19,7.39-3.2,11.6-6.03v19.64c-1.99,1.08-4.4,2.01-7.24,2.81-2.83.8-5.79,1.43-8.84,1.9-3.07.46-5.97.68-8.73.68Z"/><path class="cls-3" d="m565.95,114.97c-3.82,0-7.07-.27-9.75-.8-2.67-.53-5.07-1.3-7.22-2.29-2.14-.99-4.47-2.14-6.99-3.44v-8.94c2.44,2.06,5.73,3.9,9.85,5.5,4.13,1.6,8.94,2.41,14.45,2.41,5.8,0,10.03-1.24,12.67-3.72,2.63-2.49,3.95-5.64,3.95-9.46,0-3.21-.89-5.79-2.64-7.74-1.76-1.95-4.01-3.55-6.76-4.81s-5.65-2.46-8.71-3.61c-2.6-.91-5.18-1.89-7.73-2.92-2.56-1.04-4.88-2.33-6.94-3.9-2.06-1.57-3.7-3.59-4.92-6.07-1.22-2.48-1.84-5.6-1.84-9.35,0-2.06.4-4.23,1.2-6.53.8-2.29,2.1-4.43,3.9-6.42,1.79-1.99,4.2-3.59,7.22-4.81,3.02-1.22,6.71-1.84,11.06-1.84,2.98,0,5.52.21,7.62.63,2.1.42,4.1,1.03,6.02,1.83,1.91.8,4.05,1.78,6.42,2.93v8.48c-1.99-1.15-3.88-2.2-5.67-3.15-1.8-.95-3.78-1.72-5.96-2.29-2.17-.57-4.83-.86-7.97-.86-3.74,0-6.74.53-9,1.6-2.25,1.07-3.89,2.48-4.92,4.24-1.04,1.75-1.55,3.63-1.55,5.61,0,3.13.71,5.61,2.13,7.45,1.41,1.83,3.4,3.34,5.96,4.52,2.56,1.18,5.51,2.35,8.88,3.5,2.67.91,5.34,1.93,8.02,3.03,2.68,1.11,5.1,2.49,7.28,4.13,2.18,1.64,3.94,3.7,5.28,6.18,1.33,2.49,2.01,5.56,2.01,9.22,0,3.44-.76,6.83-2.29,10.15-1.53,3.32-4.13,6.07-7.8,8.25-3.67,2.17-8.75,3.26-15.24,3.26Z"/><path class="cls-3" d="m637.82,114.97c-9.48,0-16.84-2.79-22.07-8.37-5.23-5.58-7.85-13.56-7.85-23.95v-45.27h8.25v45.73c0,8.17,1.84,14.23,5.5,18.16,3.67,3.94,9.06,5.9,16.16,5.9s12.53-1.97,16.28-5.9c3.74-3.93,5.61-9.99,5.61-18.16v-45.73h8.02v45.27c0,6.95-1.18,12.83-3.55,17.65-2.37,4.81-5.77,8.46-10.2,10.95-4.43,2.48-9.81,3.72-16.15,3.72Z"/><path class="cls-3" d="m687.2,113.82V37.38h9.4l47.68,67.28-2.06,3.21V37.38h8.25v76.45h-9.28l-49.51-69.8,3.78-3.55v73.35h-8.25Z"/></svg>